<mxfile host="app.diagrams.net" agent="Mozilla/5.0 (Macintosh; Intel Mac OS X 10_15_7) AppleWebKit/537.36 (KHTML, like Gecko) Chrome/127.0.0.0 Safari/537.36" version="24.7.7">
  <diagram name="第 1 页" id="s9fELJTUidF0-A_7kJBX">
    <mxGraphModel dx="1781" dy="1723" grid="1" gridSize="10" guides="1" tooltips="1" connect="1" arrows="1" fold="1" page="1" pageScale="1" pageWidth="827" pageHeight="1169" math="0" shadow="0">
      <root>
        <mxCell id="0" />
        <mxCell id="1" parent="0" />
        <mxCell id="TlbL90M6Y9V8i7h1ZOgy-23" style="edgeStyle=orthogonalEdgeStyle;rounded=0;orthogonalLoop=1;jettySize=auto;html=1;exitX=1;exitY=0.5;exitDx=0;exitDy=0;entryX=0;entryY=0.5;entryDx=0;entryDy=0;" edge="1" parent="1" source="TlbL90M6Y9V8i7h1ZOgy-21" target="TlbL90M6Y9V8i7h1ZOgy-22">
          <mxGeometry relative="1" as="geometry" />
        </mxCell>
        <mxCell id="TlbL90M6Y9V8i7h1ZOgy-21" value="未锁定积分卖单" style="rounded=0;whiteSpace=wrap;html=1;" vertex="1" parent="1">
          <mxGeometry x="160" y="40" width="120" height="40" as="geometry" />
        </mxCell>
        <mxCell id="TlbL90M6Y9V8i7h1ZOgy-27" style="edgeStyle=orthogonalEdgeStyle;rounded=0;orthogonalLoop=1;jettySize=auto;html=1;exitX=0.5;exitY=1;exitDx=0;exitDy=0;entryX=0.5;entryY=0;entryDx=0;entryDy=0;" edge="1" parent="1" source="TlbL90M6Y9V8i7h1ZOgy-22" target="TlbL90M6Y9V8i7h1ZOgy-26">
          <mxGeometry relative="1" as="geometry" />
        </mxCell>
        <mxCell id="TlbL90M6Y9V8i7h1ZOgy-22" value="买家下单" style="rounded=0;whiteSpace=wrap;html=1;" vertex="1" parent="1">
          <mxGeometry x="450" y="40" width="120" height="40" as="geometry" />
        </mxCell>
        <mxCell id="TlbL90M6Y9V8i7h1ZOgy-75" style="edgeStyle=orthogonalEdgeStyle;rounded=0;orthogonalLoop=1;jettySize=auto;html=1;exitX=0.5;exitY=1;exitDx=0;exitDy=0;entryX=0.5;entryY=0;entryDx=0;entryDy=0;" edge="1" parent="1" source="TlbL90M6Y9V8i7h1ZOgy-24" target="TlbL90M6Y9V8i7h1ZOgy-74">
          <mxGeometry relative="1" as="geometry" />
        </mxCell>
        <mxCell id="TlbL90M6Y9V8i7h1ZOgy-24" value="锁定积分卖单" style="rounded=0;whiteSpace=wrap;html=1;" vertex="1" parent="1">
          <mxGeometry x="160" y="130" width="120" height="40" as="geometry" />
        </mxCell>
        <mxCell id="TlbL90M6Y9V8i7h1ZOgy-28" value="否" style="edgeStyle=orthogonalEdgeStyle;rounded=0;orthogonalLoop=1;jettySize=auto;html=1;exitX=0;exitY=0.5;exitDx=0;exitDy=0;entryX=1;entryY=0.5;entryDx=0;entryDy=0;" edge="1" parent="1" source="TlbL90M6Y9V8i7h1ZOgy-26" target="TlbL90M6Y9V8i7h1ZOgy-24">
          <mxGeometry relative="1" as="geometry" />
        </mxCell>
        <mxCell id="TlbL90M6Y9V8i7h1ZOgy-30" style="edgeStyle=orthogonalEdgeStyle;rounded=0;orthogonalLoop=1;jettySize=auto;html=1;exitX=1;exitY=0.5;exitDx=0;exitDy=0;entryX=0;entryY=0.5;entryDx=0;entryDy=0;" edge="1" parent="1" source="TlbL90M6Y9V8i7h1ZOgy-26" target="TlbL90M6Y9V8i7h1ZOgy-29">
          <mxGeometry relative="1" as="geometry" />
        </mxCell>
        <mxCell id="TlbL90M6Y9V8i7h1ZOgy-31" value="是" style="edgeLabel;html=1;align=center;verticalAlign=middle;resizable=0;points=[];" vertex="1" connectable="0" parent="TlbL90M6Y9V8i7h1ZOgy-30">
          <mxGeometry x="-0.4" y="3" relative="1" as="geometry">
            <mxPoint as="offset" />
          </mxGeometry>
        </mxCell>
        <mxCell id="TlbL90M6Y9V8i7h1ZOgy-26" value="是否已锁单" style="rhombus;whiteSpace=wrap;html=1;" vertex="1" parent="1">
          <mxGeometry x="470" y="125" width="80" height="50" as="geometry" />
        </mxCell>
        <mxCell id="TlbL90M6Y9V8i7h1ZOgy-29" value="终止" style="rounded=1;whiteSpace=wrap;html=1;" vertex="1" parent="1">
          <mxGeometry x="680" y="120" width="120" height="60" as="geometry" />
        </mxCell>
        <mxCell id="TlbL90M6Y9V8i7h1ZOgy-60" style="edgeStyle=orthogonalEdgeStyle;rounded=0;orthogonalLoop=1;jettySize=auto;html=1;exitX=1;exitY=0.5;exitDx=0;exitDy=0;entryX=0.5;entryY=0;entryDx=0;entryDy=0;" edge="1" parent="1" source="TlbL90M6Y9V8i7h1ZOgy-32" target="TlbL90M6Y9V8i7h1ZOgy-56">
          <mxGeometry relative="1" as="geometry" />
        </mxCell>
        <mxCell id="TlbL90M6Y9V8i7h1ZOgy-62" style="edgeStyle=orthogonalEdgeStyle;rounded=0;orthogonalLoop=1;jettySize=auto;html=1;exitX=0.5;exitY=1;exitDx=0;exitDy=0;entryX=0.5;entryY=0;entryDx=0;entryDy=0;" edge="1" parent="1" source="TlbL90M6Y9V8i7h1ZOgy-32" target="TlbL90M6Y9V8i7h1ZOgy-46">
          <mxGeometry relative="1" as="geometry" />
        </mxCell>
        <mxCell id="TlbL90M6Y9V8i7h1ZOgy-32" value="买家付款" style="rounded=0;whiteSpace=wrap;html=1;fillColor=#99FFCC;" vertex="1" parent="1">
          <mxGeometry x="450" y="220" width="120" height="40" as="geometry" />
        </mxCell>
        <mxCell id="TlbL90M6Y9V8i7h1ZOgy-42" style="edgeStyle=orthogonalEdgeStyle;rounded=0;orthogonalLoop=1;jettySize=auto;html=1;exitX=1;exitY=0.5;exitDx=0;exitDy=0;entryX=0.5;entryY=1;entryDx=0;entryDy=0;" edge="1" parent="1" source="TlbL90M6Y9V8i7h1ZOgy-39">
          <mxGeometry relative="1" as="geometry">
            <mxPoint x="300" y="890" as="sourcePoint" />
            <mxPoint x="760" y="180" as="targetPoint" />
          </mxGeometry>
        </mxCell>
        <mxCell id="TlbL90M6Y9V8i7h1ZOgy-56" value="点击取消付款" style="rounded=0;whiteSpace=wrap;html=1;" vertex="1" parent="1">
          <mxGeometry x="530" y="300" width="120" height="40" as="geometry" />
        </mxCell>
        <mxCell id="TlbL90M6Y9V8i7h1ZOgy-58" style="edgeStyle=orthogonalEdgeStyle;rounded=0;orthogonalLoop=1;jettySize=auto;html=1;exitX=1;exitY=0.5;exitDx=0;exitDy=0;entryX=0.358;entryY=0.983;entryDx=0;entryDy=0;entryPerimeter=0;" edge="1" parent="1" source="TlbL90M6Y9V8i7h1ZOgy-56" target="TlbL90M6Y9V8i7h1ZOgy-29">
          <mxGeometry relative="1" as="geometry" />
        </mxCell>
        <mxCell id="TlbL90M6Y9V8i7h1ZOgy-76" style="edgeStyle=orthogonalEdgeStyle;rounded=0;orthogonalLoop=1;jettySize=auto;html=1;exitX=1;exitY=0.5;exitDx=0;exitDy=0;entryX=0;entryY=0.5;entryDx=0;entryDy=0;" edge="1" parent="1" source="TlbL90M6Y9V8i7h1ZOgy-74" target="TlbL90M6Y9V8i7h1ZOgy-32">
          <mxGeometry relative="1" as="geometry" />
        </mxCell>
        <mxCell id="TlbL90M6Y9V8i7h1ZOgy-105" style="edgeStyle=orthogonalEdgeStyle;rounded=0;orthogonalLoop=1;jettySize=auto;html=1;exitX=0.5;exitY=1;exitDx=0;exitDy=0;entryX=0.5;entryY=0;entryDx=0;entryDy=0;" edge="1" parent="1" source="TlbL90M6Y9V8i7h1ZOgy-74" target="TlbL90M6Y9V8i7h1ZOgy-104">
          <mxGeometry relative="1" as="geometry" />
        </mxCell>
        <mxCell id="TlbL90M6Y9V8i7h1ZOgy-74" value="创建IM群和订单" style="rounded=0;whiteSpace=wrap;html=1;" vertex="1" parent="1">
          <mxGeometry x="160" y="220" width="120" height="40" as="geometry" />
        </mxCell>
        <mxCell id="TlbL90M6Y9V8i7h1ZOgy-97" value="" style="endArrow=none;html=1;rounded=0;strokeColor=#FF0000;" edge="1" parent="1">
          <mxGeometry width="50" height="50" relative="1" as="geometry">
            <mxPoint x="120" y="972" as="sourcePoint" />
            <mxPoint x="120" y="-40" as="targetPoint" />
          </mxGeometry>
        </mxCell>
        <mxCell id="TlbL90M6Y9V8i7h1ZOgy-98" value="" style="endArrow=none;html=1;rounded=0;strokeColor=#FF0000;" edge="1" parent="1">
          <mxGeometry width="50" height="50" relative="1" as="geometry">
            <mxPoint x="410" y="972" as="sourcePoint" />
            <mxPoint x="410" y="-40" as="targetPoint" />
          </mxGeometry>
        </mxCell>
        <mxCell id="TlbL90M6Y9V8i7h1ZOgy-99" value="卖家" style="text;html=1;align=center;verticalAlign=middle;whiteSpace=wrap;rounded=0;fontStyle=1;fontSize=24;" vertex="1" parent="1">
          <mxGeometry x="-50" y="-30" width="60" height="30" as="geometry" />
        </mxCell>
        <mxCell id="TlbL90M6Y9V8i7h1ZOgy-100" value="系统" style="text;html=1;align=center;verticalAlign=middle;whiteSpace=wrap;rounded=0;fontStyle=1;fontSize=24;" vertex="1" parent="1">
          <mxGeometry x="240" y="-30" width="60" height="30" as="geometry" />
        </mxCell>
        <mxCell id="TlbL90M6Y9V8i7h1ZOgy-101" value="买家" style="text;html=1;align=center;verticalAlign=middle;whiteSpace=wrap;rounded=0;fontStyle=1;fontSize=24;" vertex="1" parent="1">
          <mxGeometry x="500" y="-30" width="60" height="30" as="geometry" />
        </mxCell>
        <mxCell id="TlbL90M6Y9V8i7h1ZOgy-102" value="" style="endArrow=none;html=1;rounded=0;strokeColor=#FF0000;" edge="1" parent="1">
          <mxGeometry width="50" height="50" relative="1" as="geometry">
            <mxPoint x="-160" y="20" as="sourcePoint" />
            <mxPoint x="790" y="20" as="targetPoint" />
          </mxGeometry>
        </mxCell>
        <mxCell id="TlbL90M6Y9V8i7h1ZOgy-114" style="edgeStyle=orthogonalEdgeStyle;rounded=0;orthogonalLoop=1;jettySize=auto;html=1;exitX=0.5;exitY=1;exitDx=0;exitDy=0;entryX=0.5;entryY=0;entryDx=0;entryDy=0;" edge="1" parent="1" source="TlbL90M6Y9V8i7h1ZOgy-104" target="TlbL90M6Y9V8i7h1ZOgy-113">
          <mxGeometry relative="1" as="geometry" />
        </mxCell>
        <mxCell id="TlbL90M6Y9V8i7h1ZOgy-104" value="订单状态轮询" style="rounded=0;whiteSpace=wrap;html=1;" vertex="1" parent="1">
          <mxGeometry x="160" y="290" width="120" height="40" as="geometry" />
        </mxCell>
        <mxCell id="TlbL90M6Y9V8i7h1ZOgy-110" style="edgeStyle=orthogonalEdgeStyle;rounded=0;orthogonalLoop=1;jettySize=auto;html=1;exitX=0;exitY=0.5;exitDx=0;exitDy=0;entryX=0;entryY=0.5;entryDx=0;entryDy=0;" edge="1" parent="1" source="TlbL90M6Y9V8i7h1ZOgy-106" target="TlbL90M6Y9V8i7h1ZOgy-104">
          <mxGeometry relative="1" as="geometry" />
        </mxCell>
        <mxCell id="TlbL90M6Y9V8i7h1ZOgy-111" value="否" style="edgeLabel;html=1;align=center;verticalAlign=middle;resizable=0;points=[];" vertex="1" connectable="0" parent="TlbL90M6Y9V8i7h1ZOgy-110">
          <mxGeometry x="-0.55" y="1" relative="1" as="geometry">
            <mxPoint as="offset" />
          </mxGeometry>
        </mxCell>
        <mxCell id="TlbL90M6Y9V8i7h1ZOgy-118" style="edgeStyle=orthogonalEdgeStyle;rounded=0;orthogonalLoop=1;jettySize=auto;html=1;exitX=1;exitY=0.5;exitDx=0;exitDy=0;entryX=0;entryY=0.5;entryDx=0;entryDy=0;" edge="1" parent="1" source="TlbL90M6Y9V8i7h1ZOgy-106" target="TlbL90M6Y9V8i7h1ZOgy-117">
          <mxGeometry relative="1" as="geometry" />
        </mxCell>
        <mxCell id="TlbL90M6Y9V8i7h1ZOgy-119" value="是" style="edgeLabel;html=1;align=center;verticalAlign=middle;resizable=0;points=[];" vertex="1" connectable="0" parent="TlbL90M6Y9V8i7h1ZOgy-118">
          <mxGeometry x="-0.6" y="-1" relative="1" as="geometry">
            <mxPoint y="1" as="offset" />
          </mxGeometry>
        </mxCell>
        <mxCell id="TlbL90M6Y9V8i7h1ZOgy-106" value="是否超时&lt;div&gt;且未付款&lt;/div&gt;" style="rhombus;whiteSpace=wrap;html=1;" vertex="1" parent="1">
          <mxGeometry x="180" y="420" width="80" height="40" as="geometry" />
        </mxCell>
        <mxCell id="TlbL90M6Y9V8i7h1ZOgy-112" value="" style="group" vertex="1" connectable="0" parent="1">
          <mxGeometry x="-190" y="490" width="970" height="585.5" as="geometry" />
        </mxCell>
        <mxCell id="TlbL90M6Y9V8i7h1ZOgy-38" style="edgeStyle=orthogonalEdgeStyle;rounded=0;orthogonalLoop=1;jettySize=auto;html=1;exitX=0;exitY=0.5;exitDx=0;exitDy=0;entryX=1;entryY=0.5;entryDx=0;entryDy=0;dashed=1;" edge="1" parent="TlbL90M6Y9V8i7h1ZOgy-112" source="TlbL90M6Y9V8i7h1ZOgy-35">
          <mxGeometry relative="1" as="geometry">
            <mxPoint x="120" y="100" as="targetPoint" />
          </mxGeometry>
        </mxCell>
        <mxCell id="TlbL90M6Y9V8i7h1ZOgy-35" value="IM沟通" style="rounded=0;whiteSpace=wrap;html=1;fillColor=#99FFCC;dashed=1;" vertex="1" parent="TlbL90M6Y9V8i7h1ZOgy-112">
          <mxGeometry x="640" y="80" width="120" height="40" as="geometry" />
        </mxCell>
        <mxCell id="TlbL90M6Y9V8i7h1ZOgy-65" style="edgeStyle=orthogonalEdgeStyle;rounded=0;orthogonalLoop=1;jettySize=auto;html=1;exitX=0.5;exitY=1;exitDx=0;exitDy=0;entryX=0;entryY=0.5;entryDx=0;entryDy=0;" edge="1" parent="TlbL90M6Y9V8i7h1ZOgy-112" target="TlbL90M6Y9V8i7h1ZOgy-63">
          <mxGeometry relative="1" as="geometry">
            <mxPoint x="60" y="120" as="sourcePoint" />
          </mxGeometry>
        </mxCell>
        <mxCell id="TlbL90M6Y9V8i7h1ZOgy-37" value="等待确认收款" style="rounded=0;whiteSpace=wrap;html=1;" vertex="1" parent="TlbL90M6Y9V8i7h1ZOgy-112">
          <mxGeometry y="80" width="120" height="40" as="geometry" />
        </mxCell>
        <mxCell id="TlbL90M6Y9V8i7h1ZOgy-39" value="积分转移" style="rounded=0;whiteSpace=wrap;html=1;" vertex="1" parent="TlbL90M6Y9V8i7h1ZOgy-112">
          <mxGeometry x="350" y="485.5" width="120" height="40" as="geometry" />
        </mxCell>
        <mxCell id="TlbL90M6Y9V8i7h1ZOgy-50" style="edgeStyle=orthogonalEdgeStyle;rounded=0;orthogonalLoop=1;jettySize=auto;html=1;exitX=0;exitY=0.5;exitDx=0;exitDy=0;entryX=1;entryY=0.5;entryDx=0;entryDy=0;" edge="1" parent="TlbL90M6Y9V8i7h1ZOgy-112" source="TlbL90M6Y9V8i7h1ZOgy-46" target="TlbL90M6Y9V8i7h1ZOgy-49">
          <mxGeometry relative="1" as="geometry" />
        </mxCell>
        <mxCell id="TlbL90M6Y9V8i7h1ZOgy-52" style="edgeStyle=orthogonalEdgeStyle;rounded=0;orthogonalLoop=1;jettySize=auto;html=1;exitX=0.5;exitY=1;exitDx=0;exitDy=0;entryX=0.5;entryY=0;entryDx=0;entryDy=0;dashed=1;" edge="1" parent="TlbL90M6Y9V8i7h1ZOgy-112" source="TlbL90M6Y9V8i7h1ZOgy-46" target="TlbL90M6Y9V8i7h1ZOgy-35">
          <mxGeometry relative="1" as="geometry" />
        </mxCell>
        <mxCell id="TlbL90M6Y9V8i7h1ZOgy-46" value="点击已付款" style="rounded=0;whiteSpace=wrap;html=1;" vertex="1" parent="TlbL90M6Y9V8i7h1ZOgy-112">
          <mxGeometry x="640" width="120" height="40" as="geometry" />
        </mxCell>
        <mxCell id="TlbL90M6Y9V8i7h1ZOgy-51" style="edgeStyle=orthogonalEdgeStyle;rounded=0;orthogonalLoop=1;jettySize=auto;html=1;exitX=0;exitY=0.5;exitDx=0;exitDy=0;entryX=0.5;entryY=0;entryDx=0;entryDy=0;" edge="1" parent="TlbL90M6Y9V8i7h1ZOgy-112" source="TlbL90M6Y9V8i7h1ZOgy-49">
          <mxGeometry relative="1" as="geometry">
            <mxPoint x="60" y="80" as="targetPoint" />
          </mxGeometry>
        </mxCell>
        <mxCell id="TlbL90M6Y9V8i7h1ZOgy-49" value="IM通知状态到群里" style="rounded=0;whiteSpace=wrap;html=1;" vertex="1" parent="TlbL90M6Y9V8i7h1ZOgy-112">
          <mxGeometry x="350" width="120" height="40" as="geometry" />
        </mxCell>
        <mxCell id="TlbL90M6Y9V8i7h1ZOgy-66" style="edgeStyle=orthogonalEdgeStyle;rounded=0;orthogonalLoop=1;jettySize=auto;html=1;exitX=1;exitY=0.5;exitDx=0;exitDy=0;entryX=0;entryY=0.5;entryDx=0;entryDy=0;" edge="1" parent="TlbL90M6Y9V8i7h1ZOgy-112" source="TlbL90M6Y9V8i7h1ZOgy-63" target="TlbL90M6Y9V8i7h1ZOgy-39">
          <mxGeometry relative="1" as="geometry" />
        </mxCell>
        <mxCell id="TlbL90M6Y9V8i7h1ZOgy-67" value="成功" style="edgeLabel;html=1;align=center;verticalAlign=middle;resizable=0;points=[];" vertex="1" connectable="0" parent="TlbL90M6Y9V8i7h1ZOgy-66">
          <mxGeometry x="-0.7" y="-2" relative="1" as="geometry">
            <mxPoint as="offset" />
          </mxGeometry>
        </mxCell>
        <mxCell id="TlbL90M6Y9V8i7h1ZOgy-71" value="失败" style="edgeStyle=orthogonalEdgeStyle;rounded=0;orthogonalLoop=1;jettySize=auto;html=1;exitX=0.5;exitY=0;exitDx=0;exitDy=0;entryX=0.5;entryY=1;entryDx=0;entryDy=0;" edge="1" parent="TlbL90M6Y9V8i7h1ZOgy-112" source="TlbL90M6Y9V8i7h1ZOgy-63" target="TlbL90M6Y9V8i7h1ZOgy-70">
          <mxGeometry relative="1" as="geometry" />
        </mxCell>
        <mxCell id="TlbL90M6Y9V8i7h1ZOgy-63" value="收款确认" style="rhombus;whiteSpace=wrap;html=1;direction=south;" vertex="1" parent="TlbL90M6Y9V8i7h1ZOgy-112">
          <mxGeometry x="20" y="170.5" width="80" height="50" as="geometry" />
        </mxCell>
        <mxCell id="TlbL90M6Y9V8i7h1ZOgy-72" style="edgeStyle=orthogonalEdgeStyle;rounded=0;orthogonalLoop=1;jettySize=auto;html=1;exitX=0.5;exitY=0;exitDx=0;exitDy=0;entryX=0.5;entryY=1;entryDx=0;entryDy=0;" edge="1" parent="TlbL90M6Y9V8i7h1ZOgy-112" source="TlbL90M6Y9V8i7h1ZOgy-70" target="TlbL90M6Y9V8i7h1ZOgy-35">
          <mxGeometry relative="1" as="geometry" />
        </mxCell>
        <mxCell id="TlbL90M6Y9V8i7h1ZOgy-73" value="否" style="edgeLabel;html=1;align=center;verticalAlign=middle;resizable=0;points=[];" vertex="1" connectable="0" parent="TlbL90M6Y9V8i7h1ZOgy-72">
          <mxGeometry x="-0.639" y="-3" relative="1" as="geometry">
            <mxPoint as="offset" />
          </mxGeometry>
        </mxCell>
        <mxCell id="TlbL90M6Y9V8i7h1ZOgy-79" style="edgeStyle=orthogonalEdgeStyle;rounded=0;orthogonalLoop=1;jettySize=auto;html=1;exitX=1;exitY=0.5;exitDx=0;exitDy=0;entryX=0.5;entryY=0;entryDx=0;entryDy=0;" edge="1" parent="TlbL90M6Y9V8i7h1ZOgy-112" source="TlbL90M6Y9V8i7h1ZOgy-70" target="TlbL90M6Y9V8i7h1ZOgy-78">
          <mxGeometry relative="1" as="geometry" />
        </mxCell>
        <mxCell id="TlbL90M6Y9V8i7h1ZOgy-80" value="是" style="edgeLabel;html=1;align=center;verticalAlign=middle;resizable=0;points=[];" vertex="1" connectable="0" parent="TlbL90M6Y9V8i7h1ZOgy-79">
          <mxGeometry x="-0.25" y="1" relative="1" as="geometry">
            <mxPoint as="offset" />
          </mxGeometry>
        </mxCell>
        <mxCell id="TlbL90M6Y9V8i7h1ZOgy-70" value="是否要终止" style="rhombus;whiteSpace=wrap;html=1;direction=south;" vertex="1" parent="TlbL90M6Y9V8i7h1ZOgy-112">
          <mxGeometry x="150" y="170.5" width="80" height="50" as="geometry" />
        </mxCell>
        <mxCell id="TlbL90M6Y9V8i7h1ZOgy-82" style="edgeStyle=orthogonalEdgeStyle;rounded=0;orthogonalLoop=1;jettySize=auto;html=1;exitX=1;exitY=0.5;exitDx=0;exitDy=0;entryX=0.5;entryY=1;entryDx=0;entryDy=0;" edge="1" parent="TlbL90M6Y9V8i7h1ZOgy-112" source="TlbL90M6Y9V8i7h1ZOgy-78" target="TlbL90M6Y9V8i7h1ZOgy-81">
          <mxGeometry relative="1" as="geometry" />
        </mxCell>
        <mxCell id="TlbL90M6Y9V8i7h1ZOgy-78" value="点击订单终止" style="rounded=0;whiteSpace=wrap;html=1;" vertex="1" parent="TlbL90M6Y9V8i7h1ZOgy-112">
          <mxGeometry x="130" y="275.5" width="120" height="40" as="geometry" />
        </mxCell>
        <mxCell id="TlbL90M6Y9V8i7h1ZOgy-84" style="edgeStyle=orthogonalEdgeStyle;rounded=0;orthogonalLoop=1;jettySize=auto;html=1;exitX=1;exitY=0.5;exitDx=0;exitDy=0;entryX=0;entryY=0.5;entryDx=0;entryDy=0;" edge="1" parent="TlbL90M6Y9V8i7h1ZOgy-112" source="TlbL90M6Y9V8i7h1ZOgy-81" target="TlbL90M6Y9V8i7h1ZOgy-83">
          <mxGeometry relative="1" as="geometry" />
        </mxCell>
        <mxCell id="TlbL90M6Y9V8i7h1ZOgy-85" value="否" style="edgeLabel;html=1;align=center;verticalAlign=middle;resizable=0;points=[];" vertex="1" connectable="0" parent="TlbL90M6Y9V8i7h1ZOgy-84">
          <mxGeometry x="-0.2444" y="-1" relative="1" as="geometry">
            <mxPoint as="offset" />
          </mxGeometry>
        </mxCell>
        <mxCell id="TlbL90M6Y9V8i7h1ZOgy-87" value="是" style="edgeStyle=orthogonalEdgeStyle;rounded=0;orthogonalLoop=1;jettySize=auto;html=1;exitX=0.5;exitY=0;exitDx=0;exitDy=0;entryX=0;entryY=0.5;entryDx=0;entryDy=0;" edge="1" parent="TlbL90M6Y9V8i7h1ZOgy-112" source="TlbL90M6Y9V8i7h1ZOgy-81" target="TlbL90M6Y9V8i7h1ZOgy-86">
          <mxGeometry relative="1" as="geometry" />
        </mxCell>
        <mxCell id="TlbL90M6Y9V8i7h1ZOgy-81" value="是否已付款" style="rhombus;whiteSpace=wrap;html=1;direction=south;" vertex="1" parent="TlbL90M6Y9V8i7h1ZOgy-112">
          <mxGeometry x="350" y="270.5" width="80" height="50" as="geometry" />
        </mxCell>
        <mxCell id="TlbL90M6Y9V8i7h1ZOgy-89" style="edgeStyle=orthogonalEdgeStyle;rounded=0;orthogonalLoop=1;jettySize=auto;html=1;exitX=0.5;exitY=0;exitDx=0;exitDy=0;" edge="1" parent="TlbL90M6Y9V8i7h1ZOgy-112" source="TlbL90M6Y9V8i7h1ZOgy-83">
          <mxGeometry relative="1" as="geometry">
            <mxPoint x="950" y="390.5" as="targetPoint" />
          </mxGeometry>
        </mxCell>
        <mxCell id="TlbL90M6Y9V8i7h1ZOgy-90" value="是，订单终止" style="edgeLabel;html=1;align=center;verticalAlign=middle;resizable=0;points=[];" vertex="1" connectable="0" parent="TlbL90M6Y9V8i7h1ZOgy-89">
          <mxGeometry x="-0.7963" y="1" relative="1" as="geometry">
            <mxPoint as="offset" />
          </mxGeometry>
        </mxCell>
        <mxCell id="TlbL90M6Y9V8i7h1ZOgy-94" style="edgeStyle=orthogonalEdgeStyle;rounded=0;orthogonalLoop=1;jettySize=auto;html=1;exitX=0.5;exitY=1;exitDx=0;exitDy=0;entryX=0.75;entryY=1;entryDx=0;entryDy=0;" edge="1" parent="TlbL90M6Y9V8i7h1ZOgy-112" source="TlbL90M6Y9V8i7h1ZOgy-83">
          <mxGeometry relative="1" as="geometry">
            <mxPoint x="90" y="120" as="targetPoint" />
          </mxGeometry>
        </mxCell>
        <mxCell id="TlbL90M6Y9V8i7h1ZOgy-95" value="否，拒绝" style="edgeLabel;html=1;align=center;verticalAlign=middle;resizable=0;points=[];" vertex="1" connectable="0" parent="TlbL90M6Y9V8i7h1ZOgy-94">
          <mxGeometry x="-0.5891" relative="1" as="geometry">
            <mxPoint as="offset" />
          </mxGeometry>
        </mxCell>
        <mxCell id="TlbL90M6Y9V8i7h1ZOgy-83" value="是否已超时" style="rhombus;whiteSpace=wrap;html=1;direction=south;" vertex="1" parent="TlbL90M6Y9V8i7h1ZOgy-112">
          <mxGeometry x="350" y="365.5" width="80" height="50" as="geometry" />
        </mxCell>
        <mxCell id="TlbL90M6Y9V8i7h1ZOgy-86" value="添加客服到IM群" style="rounded=0;whiteSpace=wrap;html=1;" vertex="1" parent="TlbL90M6Y9V8i7h1ZOgy-112">
          <mxGeometry x="480" y="275.5" width="90" height="40" as="geometry" />
        </mxCell>
        <mxCell id="TlbL90M6Y9V8i7h1ZOgy-88" style="edgeStyle=orthogonalEdgeStyle;rounded=0;orthogonalLoop=1;jettySize=auto;html=1;exitX=1;exitY=0.5;exitDx=0;exitDy=0;entryX=0.6;entryY=0.988;entryDx=0;entryDy=0;entryPerimeter=0;" edge="1" parent="TlbL90M6Y9V8i7h1ZOgy-112" source="TlbL90M6Y9V8i7h1ZOgy-86" target="TlbL90M6Y9V8i7h1ZOgy-35">
          <mxGeometry relative="1" as="geometry" />
        </mxCell>
        <mxCell id="TlbL90M6Y9V8i7h1ZOgy-103" value="外部系统" style="rounded=0;whiteSpace=wrap;html=1;fillColor=#99FFCC;dashed=1;" vertex="1" parent="TlbL90M6Y9V8i7h1ZOgy-112">
          <mxGeometry x="850" y="545.5" width="120" height="40" as="geometry" />
        </mxCell>
        <mxCell id="TlbL90M6Y9V8i7h1ZOgy-115" style="edgeStyle=orthogonalEdgeStyle;rounded=0;orthogonalLoop=1;jettySize=auto;html=1;exitX=0.5;exitY=1;exitDx=0;exitDy=0;entryX=0.5;entryY=0;entryDx=0;entryDy=0;" edge="1" parent="1" source="TlbL90M6Y9V8i7h1ZOgy-113" target="TlbL90M6Y9V8i7h1ZOgy-106">
          <mxGeometry relative="1" as="geometry" />
        </mxCell>
        <mxCell id="TlbL90M6Y9V8i7h1ZOgy-116" value="否" style="edgeLabel;html=1;align=center;verticalAlign=middle;resizable=0;points=[];" vertex="1" connectable="0" parent="TlbL90M6Y9V8i7h1ZOgy-115">
          <mxGeometry x="-0.1667" y="1" relative="1" as="geometry">
            <mxPoint y="1" as="offset" />
          </mxGeometry>
        </mxCell>
        <mxCell id="TlbL90M6Y9V8i7h1ZOgy-121" style="edgeStyle=orthogonalEdgeStyle;rounded=0;orthogonalLoop=1;jettySize=auto;html=1;exitX=1;exitY=0.5;exitDx=0;exitDy=0;" edge="1" parent="1" source="TlbL90M6Y9V8i7h1ZOgy-113">
          <mxGeometry relative="1" as="geometry">
            <mxPoint x="760" y="370" as="targetPoint" />
          </mxGeometry>
        </mxCell>
        <mxCell id="TlbL90M6Y9V8i7h1ZOgy-113" value="是否标记为即将过期" style="rhombus;whiteSpace=wrap;html=1;" vertex="1" parent="1">
          <mxGeometry x="180" y="350" width="80" height="40" as="geometry" />
        </mxCell>
        <mxCell id="TlbL90M6Y9V8i7h1ZOgy-117" value="标记为即将过期，并IM群+邮件通知" style="rounded=0;whiteSpace=wrap;html=1;" vertex="1" parent="1">
          <mxGeometry x="280" y="420" width="120" height="40" as="geometry" />
        </mxCell>
      </root>
    </mxGraphModel>
  </diagram>
</mxfile>
